<svg xmlns="http://www.w3.org/2000/svg" xmlns:xlink="http://www.w3.org/1999/xlink" viewBox="0 0 778.67 263.11"><defs><style>.cls-1,.cls-4,.cls-5{fill:#fff;}.cls-2{isolation:isolate;}.cls-3{clip-path:url(#clip-path);}.cls-4{mix-blend-mode:color-dodge;}.cls-5{mix-blend-mode:multiply;}</style><clipPath id="clip-path"><path class="cls-1" d="M249.2,189.2A99.84,99.84,0,0,0,118.54,47.64c-4.83,2.51-9.28,5.46-9.64,5.7C90.35,66.06,81.05,83.28,76.52,93.9,83.24,89.68,103.37,78.32,129,82c29.83,4.31,55.15,27.32,65.44,58.95-.27-.75-9.63-39.75-34.84-69.87A65.32,65.32,0,0,1,218.74,172.7a66.17,66.17,0,0,1-7.46,9.13,159.88,159.88,0,0,0,34.41,12.59C246.92,192.72,248.1,191,249.2,189.2Z"/></clipPath></defs><title>ozmo</title><g class="cls-2"><g id="OBJECTS"><path class="cls-1" d="M249.2,189.2A99.84,99.84,0,0,0,118.54,47.64c-4.83,2.51-9.28,5.46-9.64,5.7C90.35,66.06,81.05,83.28,76.52,93.9,83.24,89.68,103.37,78.32,129,82c29.83,4.31,55.15,27.32,65.44,58.95-.27-.75-9.63-39.75-34.84-69.87A65.32,65.32,0,0,1,218.74,172.7a66.17,66.17,0,0,1-7.46,9.13,159.88,159.88,0,0,0,34.41,12.59C246.92,192.72,248.1,191,249.2,189.2Z"/><g class="cls-3"><path class="cls-4" d="M103,61.74a95.07,95.07,0,0,1,17-11.26,97.7,97.7,0,0,1,58.68-9.82A96.64,96.64,0,0,1,246.5,187.5c-.68,1.1-1.4,2.19-2.18,3.32a153.34,153.34,0,0,1-27.76-10,68.13,68.13,0,0,0,16.49-44.57,68.47,68.47,0,0,0-73.71-68.3l-6.19.47,4,4.76c12.19,14.57,20.67,31.39,26.2,45-11.5-14.74-28.07-31.62-46.41-43C125.35,68,114,63.5,103,61.74Z"/><path class="cls-5" d="M279.89,196.05c-18-2.62-43.72-7.66-70.53-50.79L191.6,175.69,202.83,196l81.89,18.09"/></g><path class="cls-1" d="M211.25,224.49a99.85,99.85,0,0,0,22.18-16c-13.94-.52-28.5-4.09-44-11.9A165.93,165.93,0,0,1,161,178.05s5.16,10.07,16.95,22.07a65.26,65.26,0,0,1-59.57-17.75L72.24,136.2c33.1-33.09,83,18.4,139,45.63a159.88,159.88,0,0,0,34.41,12.59,92,92,0,0,0,34.2,1.63,87.92,87.92,0,0,1-30.69-6.85,171.74,171.74,0,0,1-30.46-16.5c-37.55-24.84-73.45-62.32-107.55-75.44-21.27-8.19-41.85-6.91-61.69,12.83l-.15.15-25.94,26L94,206.79a99.93,99.93,0,0,0,117.28,17.7Z"/><path class="cls-4" d="M51.76,112.35c17.09-17,35.61-20.85,58.28-12.11,20.73,8,42.13,25.14,64.78,43.31,13.68,11,27.82,22.33,42.15,31.81a180.64,180.64,0,0,0,28.4,15.71A157.9,157.9,0,0,1,212.67,179c-15.26-7.42-30-16.63-44.32-25.54C131,130.14,95.77,108.15,70,133.94l-2.26,2.25,48.42,48.44a68.46,68.46,0,0,0,62.49,18.61l5.7-1.2-4.08-4.16c-2.08-2.11-3.94-4.16-5.6-6.11A149.76,149.76,0,0,0,188,199.44a110.64,110.64,0,0,0,37.63,11.66,96.66,96.66,0,0,1-129.42-6.57l-68.3-68.34Z"/><path class="cls-4" d="M51.76,112.35c17.09-17,35.61-20.85,58.28-12.11,20.73,8,42.13,25.14,64.78,43.31,13.68,11,27.82,22.33,42.15,31.81a180.64,180.64,0,0,0,28.4,15.71A157.9,157.9,0,0,1,212.67,179c-15.26-7.42-30-16.63-44.32-25.54C131,130.14,95.77,108.15,70,133.94l-2.26,2.25,48.42,48.44a68.46,68.46,0,0,0,62.49,18.61l5.7-1.2-4.08-4.16c-2.08-2.11-3.94-4.16-5.6-6.11A149.76,149.76,0,0,0,188,199.44a110.64,110.64,0,0,0,37.63,11.66,96.66,96.66,0,0,1-129.42-6.57l-68.3-68.34Z"/><path class="cls-4" d="M103,61.74a95.07,95.07,0,0,1,17-11.26,97.7,97.7,0,0,1,58.68-9.82A96.64,96.64,0,0,1,246.5,187.5c-.68,1.1-1.4,2.19-2.18,3.32a153.34,153.34,0,0,1-27.76-10,68.13,68.13,0,0,0,16.49-44.57,68.47,68.47,0,0,0-73.71-68.3l-6.19.47,4,4.76c12.19,14.57,20.67,31.39,26.2,45-11.5-14.74-28.07-31.62-46.41-43C125.35,68,114,63.5,103,61.74Z"/><path class="cls-1" d="M295.21,216.1V183a9.25,9.25,0,0,1,1.92-5.52L366,93.8a4.21,4.21,0,0,0,.48-1.2c0-.8-.57-1.2-1.68-1.2h-65q-4.56,0-4.56-4.56V57.35q0-4.56,4.56-4.56H413.2q4.56,0,4.56,4.56V90.44A9.25,9.25,0,0,1,415.84,96l-69.31,83.69a4.21,4.21,0,0,0-.48,1.2q0,1.2,1.68,1.2H413.2q4.56,0,4.56,4.56V216.1q0,4.56-4.56,4.56H299.77Q295.21,220.66,295.21,216.1Z"/><path class="cls-1" d="M433.58,216.1V57.35q0-4.56,4.56-4.56h35.73a5.79,5.79,0,0,1,5.52,3.12l29,47.24a1.52,1.52,0,0,0,1.44,1,1.53,1.53,0,0,0,1.43-1l29-47.24a5.79,5.79,0,0,1,5.52-3.12h35.73q4.56,0,4.56,4.56V216.1q0,4.56-4.56,4.56h-36q-4.56,0-4.56-4.56V131.45q0-1.44-.84-1.68t-1.56,1l-14.87,24.7a5.78,5.78,0,0,1-5.51,3.12H501.45a5.76,5.76,0,0,1-5.51-3.12l-14.87-24.7a1.93,1.93,0,0,0-1.44-1q-1,0-1,1.68V216.1q0,4.56-4.56,4.56h-36Q433.58,220.66,433.58,216.1Z"/><path class="cls-1" d="M634.67,215.5A57.77,57.77,0,0,1,611,193q-8.38-14.51-8.39-33.69V114.18q0-18.71,8.39-33.09a57.37,57.37,0,0,1,23.63-22.31q15.23-7.91,35.13-7.91,20.15,0,35.37,7.91a57.34,57.34,0,0,1,23.62,22.31q8.4,14.39,8.4,33.09v45.09q0,19.18-8.4,33.69a57.75,57.75,0,0,1-23.62,22.54q-15.23,8-35.37,8Q649.9,223.54,634.67,215.5ZM686,178.33q6.1-6.59,6.11-17.62v-47q0-11-6.11-17.62t-16.19-6.6q-9.84,0-15.95,6.6t-6.11,17.62v47q0,11,6.11,17.62t15.95,6.6Q679.87,184.93,686,178.33Z"/></g></g></svg>