<?xml version="1.0" encoding="utf-8"?>
<!-- Generator: Adobe Illustrator 23.0.0, SVG Export Plug-In . SVG Version: 6.00 Build 0)  -->
<svg version="1.1" xmlns="http://www.w3.org/2000/svg" xmlns:xlink="http://www.w3.org/1999/xlink" x="0px" y="0px"
	 viewBox="0 0 766.74 257.78" style="enable-background:new 0 0 766.74 257.78;" xml:space="preserve">
<style type="text/css">
	.st0{clip-path:url(#XMLID_8_);}
	.st1{clip-path:url(#XMLID_10_);fill:url(#SVGID_1_);}
	.st2{clip-path:url(#XMLID_10_);fill:url(#SVGID_2_);}
	.st3{fill:url(#SVGID_3_);}
	.st4{fill:url(#SVGID_4_);}
	.st5{fill:url(#SVGID_5_);}
	.st6{fill:url(#SVGID_6_);}
	.st7{fill:url(#SVGID_7_);}
	.st8{fill:url(#SVGID_8_);}
	.st9{fill:url(#SVGID_9_);}
	.st10{clip-path:url(#XMLID_12_);fill:url(#SVGID_10_);}
	.st11{clip-path:url(#XMLID_12_);fill:url(#SVGID_11_);}
	.st12{fill:url(#SVGID_12_);}
	.st13{fill:url(#SVGID_13_);}
	.st14{fill:url(#SVGID_14_);}
	.st15{fill:url(#SVGID_15_);}
	.st16{fill:url(#SVGID_16_);}
	.st17{fill:url(#SVGID_17_);}
	.st18{fill:url(#SVGID_18_);}
	.st19{clip-path:url(#XMLID_14_);fill:url(#SVGID_19_);}
	.st20{clip-path:url(#XMLID_14_);fill:url(#SVGID_20_);}
	.st21{fill:url(#SVGID_21_);}
	.st22{fill:url(#SVGID_22_);}
	.st23{fill:url(#SVGID_23_);}
	.st24{fill:url(#SVGID_24_);}
	.st25{fill:url(#SVGID_25_);}
	.st26{fill:url(#SVGID_26_);}
	.st27{fill:url(#SVGID_27_);}
	.st28{clip-path:url(#XMLID_15_);fill:#FFFFFF;}
	.st29{fill:#FFFFFF;}
	.st30{clip-path:url(#XMLID_16_);fill:#D38A2A;}
	.st31{fill:#D38A2A;}
	.st32{fill:#D38A2A;stroke:#EFD345;stroke-width:6;stroke-miterlimit:10;}
</style>
<g id="BACKGROUND">
</g>
<g id="OBJECTS">
	<g>
		<g>
			<g>
				<defs>
					<path id="XMLID_6_" d="M250.1,186.32c9.89-15.72,15.18-33.94,15.19-52.97c0.01-26.67-10.38-51.74-29.22-70.6
						c-31.5-31.51-79.01-37.51-116.63-18c-4.84,2.51-9.29,5.46-9.64,5.7C91.25,63.18,81.95,80.39,77.42,91.01
						c6.72-4.21,26.85-15.57,52.46-11.87c29.83,4.31,55.14,27.32,65.44,58.96c-0.27-0.76-9.63-39.75-34.84-69.87
						c18.34-1.4,37.15,4.91,51.17,18.94c12.74,12.75,19.11,29.46,19.11,46.17c0,12.74-3.71,25.49-11.12,36.47
						c-2.17,3.21-4.65,6.27-7.46,9.13c11.26,5.47,22.76,9.96,34.41,12.59C247.82,189.83,249,188.09,250.1,186.32z"/>
				</defs>
				<use xlink:href="#XMLID_6_"  style="overflow:visible;"/>
				<clipPath id="XMLID_8_">
					<use xlink:href="#XMLID_6_"  style="overflow:visible;"/>
				</clipPath>
				<path class="st0" d="M103.89,58.85c5.26-4.35,10.96-8.13,17.03-11.27c17.83-9.25,38.67-12.74,58.68-9.81
					c20.69,3.02,39.44,12.44,54.22,27.23c18.24,18.26,28.29,42.53,28.28,68.34c0,18.27-5.09,36-14.7,51.27
					c-0.68,1.1-1.4,2.19-2.18,3.32c-8.69-2.13-17.83-5.43-27.77-10.02c1.73-2,3.34-4.12,4.82-6.31
					c7.63-11.31,11.67-24.54,11.67-38.26c0-18.3-7.11-35.5-20.04-48.43c-14.14-14.15-33.71-21.39-53.67-19.87l-6.19,0.47l3.99,4.76
					c12.19,14.56,20.67,31.39,26.19,44.98c-11.49-14.75-28.06-31.63-46.4-42.98C126.25,65.11,114.87,60.62,103.89,58.85z"/>
				<path class="st0" d="M280.79,193.16c-17.98-2.62-43.72-7.66-70.53-50.79l-17.76,30.44l11.23,20.34l81.9,18.09"/>
			</g>
			<path d="M212.15,221.6c8-4.23,15.46-9.6,22.18-16.01c-13.94-0.52-28.5-4.09-43.97-11.89c-9.14-4.61-18.6-10.71-28.44-18.54
				c0,0,5.16,10.07,16.95,22.07c-4.42,0.93-8.92,1.39-13.41,1.39c-16.71,0-33.41-6.39-46.17-19.14l-46.16-46.18
				c33.1-33.09,82.99,18.4,139.04,45.64c11.26,5.47,22.76,9.96,34.41,12.59c11.27,2.55,22.7,3.35,34.2,1.63
				c-10.34-0.26-20.58-2.77-30.69-6.85c-10.27-4.12-20.43-9.86-30.46-16.5c-37.55-24.84-73.44-62.32-107.55-75.44
				c-21.27-8.19-41.84-6.9-61.69,12.84c-0.05,0.05-0.1,0.1-0.15,0.15L24.31,133.3l70.56,70.61c18.86,18.85,43.93,29.24,70.59,29.25
				C182,233.15,197.94,229.15,212.15,221.6z"/>
			<path d="M52.66,109.46c17.08-17,35.6-20.85,58.28-12.11c20.73,7.97,42.13,25.14,64.78,43.32c13.68,10.98,27.82,22.32,42.16,31.81
				c10.22,6.76,19.53,11.92,28.39,15.71c-10.12-2.38-20.83-6.35-32.7-12.11c-15.26-7.41-30.04-16.63-44.33-25.54
				c-37.32-23.28-72.57-45.26-98.37-19.48l-2.26,2.26l48.42,48.44c12.95,12.94,30.14,20.07,48.42,20.07c4.75,0,9.49-0.49,14.07-1.46
				l5.7-1.21l-4.08-4.16c-2.07-2.11-3.94-4.16-5.6-6.11c4.49,2.88,8.95,5.44,13.37,7.67c12.64,6.38,25.02,10.22,37.63,11.66
				c-4.96,4.06-10.29,7.6-15.9,10.57c-13.78,7.32-29.41,11.18-45.2,11.18c-25.8-0.01-50.07-10.06-68.33-28.31l-68.3-68.35
				L52.66,109.46z"/>
			<path d="M52.66,109.46c17.08-17,35.6-20.85,58.28-12.11c20.73,7.97,42.13,25.14,64.78,43.32c13.68,10.98,27.82,22.32,42.16,31.81
				c10.22,6.76,19.53,11.92,28.39,15.71c-10.12-2.38-20.83-6.35-32.7-12.11c-15.26-7.41-30.04-16.63-44.33-25.54
				c-37.32-23.28-72.57-45.26-98.37-19.48l-2.26,2.26l48.42,48.44c12.95,12.94,30.14,20.07,48.42,20.07c4.75,0,9.49-0.49,14.07-1.46
				l5.7-1.21l-4.08-4.16c-2.07-2.11-3.94-4.16-5.6-6.11c4.49,2.88,8.95,5.44,13.37,7.67c12.64,6.38,25.02,10.22,37.63,11.66
				c-4.96,4.06-10.29,7.6-15.9,10.57c-13.78,7.32-29.41,11.18-45.2,11.18c-25.8-0.01-50.07-10.06-68.33-28.31l-68.3-68.35
				L52.66,109.46z"/>
			<path d="M103.89,58.85c5.26-4.35,10.96-8.13,17.03-11.27c17.83-9.25,38.67-12.74,58.68-9.81c20.69,3.02,39.44,12.44,54.22,27.23
				c18.24,18.26,28.29,42.53,28.28,68.34c0,18.27-5.09,36-14.7,51.27c-0.68,1.1-1.4,2.19-2.18,3.32
				c-8.69-2.13-17.83-5.43-27.77-10.02c1.73-2,3.34-4.12,4.82-6.31c7.63-11.31,11.67-24.54,11.67-38.26
				c0-18.3-7.11-35.5-20.04-48.43c-14.14-14.15-33.71-21.39-53.67-19.87l-6.19,0.47l3.99,4.76c12.19,14.56,20.67,31.39,26.19,44.98
				c-11.49-14.75-28.06-31.63-46.4-42.98C126.25,65.11,114.87,60.62,103.89,58.85z"/>
		</g>
		<g>
			<path d="M296.11,213.22v-33.09c0-1.92,0.64-3.75,1.92-5.52l68.83-83.7c0.32-0.64,0.48-1.04,0.48-1.2c0-0.8-0.56-1.2-1.68-1.2
				h-64.99c-3.04,0-4.56-1.52-4.56-4.56v-29.5c0-3.04,1.52-4.56,4.56-4.56H414.1c3.04,0,4.56,1.52,4.56,4.56v33.09
				c0,1.92-0.64,3.76-1.92,5.52l-69.31,83.7c-0.32,0.64-0.48,1.04-0.48,1.2c0,0.8,0.56,1.2,1.68,1.2h65.47
				c3.04,0,4.56,1.52,4.56,4.56v29.5c0,3.04-1.52,4.56-4.56,4.56H300.67C297.63,217.77,296.11,216.26,296.11,213.22z"/>
			<path d="M434.49,213.22V54.46c0-3.04,1.52-4.56,4.56-4.56h35.73c2.56,0,4.4,1.04,5.52,3.12l29.02,47.24
				c0.32,0.64,0.8,0.96,1.44,0.96c0.64,0,1.12-0.32,1.44-0.96l29.02-47.24c1.12-2.08,2.96-3.12,5.52-3.12h35.73
				c3.04,0,4.56,1.52,4.56,4.56v158.76c0,3.04-1.52,4.56-4.56,4.56h-35.97c-3.04,0-4.56-1.52-4.56-4.56v-84.65
				c0-0.96-0.28-1.52-0.84-1.68c-0.56-0.16-1.08,0.16-1.56,0.96l-14.87,24.7c-1.12,2.08-2.96,3.12-5.52,3.12h-16.79
				c-2.56,0-4.4-1.04-5.52-3.12l-14.87-24.7c-0.48-0.64-0.96-0.96-1.44-0.96c-0.64,0-0.96,0.56-0.96,1.68v84.65
				c0,3.04-1.52,4.56-4.56,4.56h-35.97C436,217.77,434.49,216.26,434.49,213.22z"/>
			<path d="M635.57,212.62c-10.15-5.35-18.03-12.87-23.62-22.54c-5.6-9.67-8.39-20.9-8.39-33.69V111.3c0-12.47,2.8-23.5,8.39-33.1
				c5.59-9.59,13.47-17.03,23.62-22.3c10.15-5.28,21.86-7.91,35.13-7.91c13.43,0,25.22,2.64,35.37,7.91
				c10.15,5.28,18.02,12.71,23.62,22.3c5.59,9.59,8.39,20.62,8.39,33.1v45.08c0,12.79-2.8,24.02-8.39,33.69
				c-5.6,9.68-13.47,17.19-23.62,22.54c-10.15,5.35-21.94,8.03-35.37,8.03C657.43,220.65,645.72,217.97,635.57,212.62z
				 M686.89,175.45c4.08-4.4,6.12-10.27,6.12-17.63v-47c0-7.35-2.04-13.23-6.12-17.63c-4.08-4.4-9.47-6.59-16.19-6.59
				c-6.56,0-11.87,2.2-15.95,6.59c-4.08,4.4-6.12,10.27-6.12,17.63v47c0,7.36,2.04,13.23,6.12,17.63c4.08,4.4,9.39,6.59,15.95,6.59
				C677.41,182.04,682.81,179.84,686.89,175.45z"/>
		</g>
	</g>
</g>
<g id="DESIGNED_BY_FREEPIK">
</g>
</svg>
